<?xml version="1.0" standalone="no"?>
<!DOCTYPE svg PUBLIC "-//W3C//DTD SVG 20010904//EN"
 "http://www.w3.org/TR/2001/REC-SVG-20010904/DTD/svg10.dtd">
<svg version="1.0" xmlns="http://www.w3.org/2000/svg"
 width="452.000000pt" height="452.000000pt" viewBox="0 0 452.000000 452.000000"
 preserveAspectRatio="xMidYMid meet">
<metadata>
Created by potrace 1.14, written by Peter Selinger 2001-2017
</metadata>
<g transform="translate(0.000000,452.000000) scale(0.100000,-0.100000)"
fill="#000000" stroke="none">
<path d="M857 3949 c-109 -26 -209 -109 -260 -217 l-32 -67 0 -1405 0 -1405
32 -67 c40 -85 106 -151 191 -191 l67 -32 1405 0 1405 0 67 32 c85 40 151 106
190 188 24 52 31 82 35 160 5 82 8 95 24 95 9 0 29 14 43 31 l26 31 0 220 0
220 -29 29 c-16 16 -36 29 -45 29 -14 0 -16 108 -18 1033 l-3 1032 -31 65
c-46 95 -93 143 -182 187 l-76 38 -1385 2 c-786 0 -1402 -3 -1424 -8z m1283
-564 l0 -185 100 0 100 0 0 185 0 185 39 0 c43 0 246 -26 297 -38 l31 -7 -48
-180 c-26 -99 -47 -180 -46 -181 8 -4 174 -44 182 -44 6 0 30 74 54 164 24 90
47 169 51 176 10 16 114 -19 251 -82 l87 -40 -89 -153 c-49 -85 -89 -158 -89
-163 0 -9 150 -102 163 -102 3 0 31 46 63 103 32 56 73 128 91 160 l34 57 87
-60 c48 -33 105 -76 127 -94 l40 -34 -41 -48 c-22 -27 -167 -205 -323 -396
l-282 -348 -234 0 c-183 0 -233 3 -230 13 12 37 176 829 173 839 -2 6 -120
-184 -262 -421 l-259 -431 -353 0 -353 0 -322 397 -323 396 40 34 c49 41 184
136 188 132 2 -2 41 -70 87 -151 l84 -147 75 41 c41 22 80 45 87 50 8 7 -12
49 -73 154 -46 80 -84 149 -84 153 0 16 314 152 324 140 1 -2 22 -76 45 -164
24 -88 46 -163 50 -167 5 -6 177 35 187 44 1 2 -17 75 -42 163 -24 88 -44 165
-44 172 0 17 220 58 328 62 l32 1 0 -185z"/>
</g>
</svg>
